<?xml version="1.0" encoding="utf-8"?>
<!-- Generator: Adobe Illustrator 16.0.0, SVG Export Plug-In . SVG Version: 6.00 Build 0)  -->
<!DOCTYPE svg PUBLIC "-//W3C//DTD SVG 1.1//EN" "http://www.w3.org/Graphics/SVG/1.1/DTD/svg11.dtd">
<svg version="1.1" id="Layer_1" xmlns="http://www.w3.org/2000/svg" xmlns:xlink="http://www.w3.org/1999/xlink" x="0px" y="0px"
	 width="16px" height="16px" viewBox="0 0 16 16" enable-background="new 0 0 16 16" xml:space="preserve">
<circle fill="#4F170A" cx="8" cy="8" r="8"/>
<linearGradient id="SVGID_1_" gradientUnits="userSpaceOnUse" x1="8" y1="15" x2="8" y2="1">
	<stop  offset="0" style="stop-color:#BC4C2E"/>
	<stop  offset="1" style="stop-color:#C65944"/>
</linearGradient>
<circle fill="url(#SVGID_1_)" cx="8" cy="8" r="7"/>
<path fill="#D87264" d="M8,2c3.697,0,6.717,2.869,6.975,6.5C14.986,8.334,15,8.169,15,8c0-3.865-3.134-7-7-7S1,4.135,1,8
	c0,0.169,0.014,0.334,0.025,0.5C1.283,4.869,4.303,2,8,2z"/>
<rect x="7" y="4" fill="#4F170A" width="2" height="5"/>
<rect x="7" y="10" fill="#4F170A" width="2" height="2"/>
<rect x="7" y="9" fill="#D87264" width="2" height="1"/>
<rect x="7" y="12" fill="#D87264" width="2" height="1"/>
</svg>
