<?xml version="1.0" encoding="utf-8"?>
<!-- Generator: Adobe Illustrator 16.0.0, SVG Export Plug-In . SVG Version: 6.00 Build 0)  -->
<!DOCTYPE svg PUBLIC "-//W3C//DTD SVG 1.1//EN" "http://www.w3.org/Graphics/SVG/1.1/DTD/svg11.dtd">
<svg version="1.1" id="Layer_1" xmlns="http://www.w3.org/2000/svg" xmlns:xlink="http://www.w3.org/1999/xlink" x="0px" y="0px"
	 width="210px" height="125px" viewBox="0 0 210 125" enable-background="new 0 0 210 125" xml:space="preserve">
<rect y="101" fill="#BC4C2E" width="210" height="1"/>
<rect y="90" fill="#8E8E85" width="210" height="1"/>
<rect y="80" fill="#8E8E85" width="210" height="1"/>
<rect y="70" fill="#8E8E85" width="210" height="1"/>
<rect y="60" fill="#8E8E85" width="210" height="1"/>
<rect y="50" fill="#8E8E85" width="210" height="1"/>
<rect y="40" fill="#8E8E85" width="210" height="1"/>
<rect y="30" fill="#8E8E85" width="210" height="1"/>
<rect y="20" fill="#8E8E85" width="210" height="1"/>
<rect y="10" fill="#8E8E85" width="210" height="1"/>
<rect fill="#8E8E85" width="210" height="1"/>
<g>
	<circle fill="#B6B7A7" cx="15" cy="21" r="8"/>
	<circle fill="#4F170A" cx="15" cy="20" r="8"/>
	<linearGradient id="SVGID_1_" gradientUnits="userSpaceOnUse" x1="15" y1="27" x2="15" y2="13">
		<stop  offset="0" style="stop-color:#BC4C2E"/>
		<stop  offset="1" style="stop-color:#C65944"/>
	</linearGradient>
	<circle fill="url(#SVGID_1_)" cx="15" cy="20" r="7"/>
	<path fill="#D87264" d="M15,14c3.697,0,6.717,2.869,6.975,6.5C21.986,20.334,22,20.169,22,20c0-3.865-3.134-7-7-7s-7,3.135-7,7
		c0,0.169,0.014,0.334,0.025,0.5C8.283,16.869,11.303,14,15,14z"/>
</g>
<g>
	<circle fill="#B6B7A7" cx="45" cy="31" r="8"/>
	<circle fill="#4F170A" cx="45" cy="30" r="8"/>
	<linearGradient id="SVGID_2_" gradientUnits="userSpaceOnUse" x1="45" y1="37" x2="45" y2="23">
		<stop  offset="0" style="stop-color:#BC4C2E"/>
		<stop  offset="1" style="stop-color:#C65944"/>
	</linearGradient>
	<circle fill="url(#SVGID_2_)" cx="45" cy="30" r="7"/>
	<path fill="#D87264" d="M45,24c3.697,0,6.717,2.869,6.975,6.5C51.986,30.334,52,30.169,52,30c0-3.865-3.134-7-7-7s-7,3.135-7,7
		c0,0.169,0.014,0.334,0.025,0.5C38.283,26.869,41.303,24,45,24z"/>
</g>
<g>
	<circle fill="#B6B7A7" cx="75" cy="11" r="8"/>
	<circle fill="#4F170A" cx="75" cy="10" r="8"/>
	<linearGradient id="SVGID_3_" gradientUnits="userSpaceOnUse" x1="75" y1="17" x2="75" y2="3">
		<stop  offset="0" style="stop-color:#BC4C2E"/>
		<stop  offset="1" style="stop-color:#C65944"/>
	</linearGradient>
	<circle fill="url(#SVGID_3_)" cx="75" cy="10" r="7"/>
	<path fill="#D87264" d="M75,4c3.697,0,6.717,2.869,6.975,6.5C81.986,10.334,82,10.169,82,10c0-3.865-3.134-7-7-7s-7,3.135-7,7
		c0,0.169,0.014,0.334,0.025,0.5C68.283,6.869,71.303,4,75,4z"/>
</g>
<g>
	<circle fill="#B6B7A7" cx="105" cy="31" r="8"/>
	<circle fill="#4F170A" cx="105" cy="30" r="8"/>
	<linearGradient id="SVGID_4_" gradientUnits="userSpaceOnUse" x1="105.0005" y1="37" x2="105.0005" y2="23">
		<stop  offset="0" style="stop-color:#BC4C2E"/>
		<stop  offset="1" style="stop-color:#C65944"/>
	</linearGradient>
	<circle fill="url(#SVGID_4_)" cx="105" cy="30" r="7"/>
	<path fill="#D87264" d="M105,24c3.697,0,6.717,2.869,6.975,6.5C111.986,30.334,112,30.169,112,30c0-3.865-3.135-7-7-7
		c-3.866,0-7,3.135-7,7c0,0.169,0.014,0.334,0.025,0.5C98.283,26.869,101.303,24,105,24z"/>
</g>
<g>
	<circle fill="#B6B7A7" cx="135" cy="31" r="8"/>
	<circle fill="#4F170A" cx="135" cy="30" r="8"/>
	<linearGradient id="SVGID_5_" gradientUnits="userSpaceOnUse" x1="135" y1="37" x2="135" y2="23">
		<stop  offset="0" style="stop-color:#BC4C2E"/>
		<stop  offset="1" style="stop-color:#C65944"/>
	</linearGradient>
	<circle fill="url(#SVGID_5_)" cx="135" cy="30" r="7"/>
	<path fill="#D87264" d="M135,24c3.697,0,6.717,2.869,6.975,6.5C141.986,30.334,142,30.169,142,30c0-3.865-3.135-7-7-7s-7,3.135-7,7
		c0,0.169,0.014,0.334,0.025,0.5C128.283,26.869,131.303,24,135,24z"/>
</g>
<g>
	<circle fill="#B6B7A7" cx="165" cy="21" r="8"/>
	<circle fill="#4F170A" cx="165" cy="20" r="8"/>
	<linearGradient id="SVGID_6_" gradientUnits="userSpaceOnUse" x1="165" y1="27" x2="165" y2="13">
		<stop  offset="0" style="stop-color:#BC4C2E"/>
		<stop  offset="1" style="stop-color:#C65944"/>
	</linearGradient>
	<circle fill="url(#SVGID_6_)" cx="165" cy="20" r="7"/>
	<path fill="#D87264" d="M165,14c3.697,0,6.717,2.869,6.975,6.5C171.986,20.334,172,20.169,172,20c0-3.865-3.135-7-7-7s-7,3.135-7,7
		c0,0.169,0.014,0.334,0.025,0.5C158.283,16.869,161.303,14,165,14z"/>
</g>
<g>
	<circle fill="#B6B7A7" cx="195" cy="31" r="8"/>
	<circle fill="#4F170A" cx="195" cy="30" r="8"/>
	<linearGradient id="SVGID_7_" gradientUnits="userSpaceOnUse" x1="195" y1="37" x2="195" y2="23">
		<stop  offset="0" style="stop-color:#BC4C2E"/>
		<stop  offset="1" style="stop-color:#C65944"/>
	</linearGradient>
	<circle fill="url(#SVGID_7_)" cx="195" cy="30" r="7"/>
	<path fill="#D87264" d="M195,24c3.697,0,6.717,2.869,6.975,6.5C201.986,30.334,202,30.169,202,30c0-3.865-3.135-7-7-7s-7,3.135-7,7
		c0,0.169,0.014,0.334,0.025,0.5C188.283,26.869,191.303,24,195,24z"/>
</g>
<g>
	<text transform="matrix(1 0 0 1 8.3359 119.75)" fill="#8E8E85" font-family="'ArialMT'" font-size="16">m</text>
</g>
<g>
	<text transform="matrix(1 0 0 1 42.7773 119.75)" fill="#8E8E85" font-family="'ArialMT'" font-size="16">t</text>
</g>
<g>
	<text transform="matrix(1 0 0 1 70.5508 119.75)" fill="#8E8E85" font-family="'ArialMT'" font-size="16">o</text>
</g>
<g>
	<text transform="matrix(1 0 0 1 102.7773 119.75)" fill="#8E8E85" font-family="'ArialMT'" font-size="16">t</text>
</g>
<g>
	<text transform="matrix(1 0 0 1 132.7773 119.75)" fill="#8E8E85" font-family="'ArialMT'" font-size="16">f</text>
</g>
<g>
	<text transform="matrix(1 0 0 1 163.2227 119.75)" fill="#8E8E85" font-family="'ArialMT'" font-size="16">l</text>
</g>
<text transform="matrix(1 0 0 1 191 119.75)" fill="#BC4C2E" font-family="'ArialMT'" font-size="16">s</text>
</svg>
