<?xml version="1.0" encoding="utf-8"?>
<!-- Generator: Adobe Illustrator 16.0.0, SVG Export Plug-In . SVG Version: 6.00 Build 0)  -->
<!DOCTYPE svg PUBLIC "-//W3C//DTD SVG 1.1//EN" "http://www.w3.org/Graphics/SVG/1.1/DTD/svg11.dtd">
<svg version="1.1" id="Layer_1" xmlns="http://www.w3.org/2000/svg" xmlns:xlink="http://www.w3.org/1999/xlink" x="0px" y="0px"
	 width="32px" height="32px" viewBox="0 0 32 32" enable-background="new 0 0 32 32" xml:space="preserve">
<path opacity="0.4" d="M26,12.657v-2c0-0.577-0.248-1.125-0.684-1.505l-3.037-2.657C21.902,6.165,21.434,6,20.963,6
	s-0.939,0.165-1.316,0.495L16,9.686l-3.646-3.19C11.977,6.165,11.508,6,11.037,6s-0.939,0.165-1.316,0.495L6.684,9.152
	C6.248,9.532,6,10.08,6,10.657v2c0,0.577,0.248,1.125,0.684,1.505L8.783,16l-2.1,1.837C6.25,18.217,6,18.766,6,19.342v2
	c0,0.576,0.248,1.125,0.684,1.506l3.037,2.658C10.098,25.834,10.566,26,11.037,26s0.939-0.164,1.316-0.494L16,22.314l3.646,3.191
	C20.023,25.836,20.492,26,20.963,26s0.939-0.164,1.316-0.494l3.037-2.658C25.752,22.467,26,21.918,26,21.342v-2
	c0-0.576-0.25-1.125-0.684-1.505L23.217,16l2.1-1.838C25.752,13.782,26,13.234,26,12.657z M19.037,15L24,19.342L20.963,22L16,17.657
	L11.037,22L8,19.342L12.963,15L8,10.657L11.037,8L16,12.343L20.963,8L24,10.657L19.037,15z"/>
</svg>
