<?xml version="1.0" encoding="utf-8"?>
<!-- Generator: Adobe Illustrator 16.0.0, SVG Export Plug-In . SVG Version: 6.00 Build 0)  -->
<!DOCTYPE svg PUBLIC "-//W3C//DTD SVG 1.1//EN" "http://www.w3.org/Graphics/SVG/1.1/DTD/svg11.dtd">
<svg version="1.1" id="Layer_1" xmlns="http://www.w3.org/2000/svg" xmlns:xlink="http://www.w3.org/1999/xlink" x="0px" y="0px"
	 width="32px" height="32px" viewBox="0 0 32 32" enable-background="new 0 0 32 32" xml:space="preserve">
<g opacity="0.4">
	<path d="M16,6c-5.514,0-10,4.038-10,9v2c0,4.962,4.486,9,10,9s10-4.038,10-9v-2C26,10.038,21.514,6,16,6z M16,22
		c-4.418,0-8-3.134-8-7s3.582-7,8-7s8,3.134,8,7S20.418,22,16,22z"/>
	<polygon points="17,11 15,11 15,16 22,16 22,14 17,14 	"/>
</g>
</svg>
