<?xml version="1.0" encoding="utf-8"?>
<!-- Generator: Adobe Illustrator 16.0.0, SVG Export Plug-In . SVG Version: 6.00 Build 0)  -->
<!DOCTYPE svg PUBLIC "-//W3C//DTD SVG 1.1//EN" "http://www.w3.org/Graphics/SVG/1.1/DTD/svg11.dtd">
<svg version="1.1" id="Layer_1" xmlns="http://www.w3.org/2000/svg" xmlns:xlink="http://www.w3.org/1999/xlink" x="0px" y="0px"
	 width="32px" height="32px" viewBox="0 0 32 32" enable-background="new 0 0 32 32" xml:space="preserve">
<path opacity="0.4" d="M22.171,6.078L22.171,6.078c-0.53,0-1.039,0.211-1.414,0.586l-6.783,6.784l-2.731-2.731
	c-0.391-0.391-0.902-0.586-1.414-0.586s-1.023,0.195-1.414,0.586l-2.828,2.828C5.211,13.92,5,14.429,5,14.959v2
	c0,0.53,0.211,1.039,0.586,1.414l6.96,6.963c0.39,0.391,0.902,0.586,1.414,0.586c0.511,0,1.022-0.194,1.412-0.584l11.04-11.015
	C26.789,13.948,27,13.438,27,12.907v-2c0-0.53-0.211-1.039-0.586-1.414l-2.829-2.829C23.21,6.289,22.701,6.078,22.171,6.078
	L22.171,6.078z M13.96,21.844L7,14.881l2.828-2.828l4.146,4.146L22.171,8L25,10.829L13.96,21.844z"/>
</svg>
