<?xml version="1.0" encoding="utf-8"?>
<!-- Generator: Adobe Illustrator 16.2.0, SVG Export Plug-In . SVG Version: 6.00 Build 0)  -->
<!DOCTYPE svg PUBLIC "-//W3C//DTD SVG 1.1//EN" "http://www.w3.org/Graphics/SVG/1.1/DTD/svg11.dtd">
<svg version="1.1" id="Layer_1" xmlns="http://www.w3.org/2000/svg" xmlns:xlink="http://www.w3.org/1999/xlink" x="0px" y="0px"
	 width="32px" height="32px" viewBox="0 0 32 32" enable-background="new 0 0 32 32" xml:space="preserve">
<path opacity="0.4" d="M25.911,12.758c-0.229-0.746-0.873-1.29-1.646-1.393l-4.514-0.603l-1.988-3.708C17.414,6.405,16.737,6,16,6
	s-1.414,0.405-1.763,1.055l-1.988,3.708l-4.514,0.603c-0.773,0.104-1.417,0.647-1.646,1.393C6.027,12.956,5.999,13.159,6,13.359
	l0.012,2.031c0.008,0.544,0.234,1.07,0.653,1.446l3.003,2.694L9.09,22.633c-0.02,0.102-0.027,0.204-0.027,0.305l-0.005,0.973
	c-0.029,0.648,0.26,1.277,0.784,1.679c0.355,0.271,0.783,0.41,1.214,0.41c0.297,0,0.594-0.066,0.871-0.199L16,23.83l4.073,1.971
	C20.35,25.934,20.647,26,20.944,26c0.431,0,0.858-0.139,1.214-0.41c0.518-0.396,0.806-1.014,0.785-1.652l-0.006-1.016
	c-0.001-0.096-0.009-0.192-0.027-0.289l-0.578-3.103l3.003-2.694c0.427-0.383,0.654-0.922,0.653-1.477L26,13.375
	C26.003,13.17,25.975,12.962,25.911,12.758z M24,13.348l-4,3.587L20.944,22L16,19.608L11.056,22L12,16.935l-4-3.587l5.528-0.739
	L16,8l2.472,4.609L24,13.348z"/>
</svg>
