<?xml version="1.0" encoding="utf-8"?>
<!-- Generator: Adobe Illustrator 16.2.0, SVG Export Plug-In . SVG Version: 6.00 Build 0)  -->
<!DOCTYPE svg PUBLIC "-//W3C//DTD SVG 1.1//EN" "http://www.w3.org/Graphics/SVG/1.1/DTD/svg11.dtd">
<svg version="1.1" id="Layer_1" xmlns="http://www.w3.org/2000/svg" xmlns:xlink="http://www.w3.org/1999/xlink" x="0px" y="0px"
	 width="32px" height="32px" viewBox="0 0 32 32" enable-background="new 0 0 32 32" xml:space="preserve">
<g opacity="0.4">
	<path d="M-36-5.088c-4.963,0-9-3.589-9-8v-1c0-4.411,4.037-8,9-8s9,3.589,9,8v1C-27-8.677-31.037-5.088-36-5.088z"/>
	<g>
		<path d="M-36-21.088c4.418,0,8,3.134,8,7c0,0.169,0,0.831,0,1c0,3.866-3.582,7-8,7s-8-3.134-8-7c0-0.169,0-0.831,0-1
			C-44-17.954-40.418-21.088-36-21.088 M-36-23.088c-5.514,0-10,4.038-10,9v1c0,4.962,4.486,9,10,9s10-4.038,10-9v-1
			C-26-19.05-30.486-23.088-36-23.088L-36-23.088z"/>
	</g>
</g>
<polygon fill="#770600" points="-161.91,-46 -160,-47.671 -160,-48.671 -161.519,-50 -164,-47.829 -166.481,-50 -168,-48.671 
	-168,-47.671 -166.09,-46 -168,-44.329 -168,-43.329 -166.481,-42 -164,-44.172 -161.519,-42 -160,-43.329 -160,-44.329 "/>
<polygon fill="#8E3313" points="-161.201,-36 -159,-37.981 -159,-38.906 -161.242,-41 -164,-38.519 -166.758,-41 -169,-38.981 
	-169,-37.981 -166.799,-36 -169,-34.019 -169,-33.019 -166.757,-31 -164,-33.481 -161.243,-31 -159,-33.019 -159,-34.019 "/>
<path opacity="0.4" d="M-161.242-41l2.242,2.094v0.925L-161.201-36l2.201,1.981v1L-161.243-31L-164-33.481L-166.757-31L-169-33.019
	v-1l2.201-1.981L-169-37.981v-1l2.242-2.019l2.758,2.481L-161.242-41 M-161.242-42c-0.239,0-0.479,0.085-0.669,0.257L-164-39.864
	l-2.089-1.879c-0.19-0.171-0.43-0.257-0.669-0.257s-0.479,0.085-0.669,0.257l-2.242,2.019c-0.211,0.189-0.331,0.46-0.331,0.743v1
	c0,0.283,0.12,0.554,0.331,0.743l1.375,1.238l-1.375,1.238c-0.211,0.189-0.331,0.46-0.331,0.743v1c0,0.283,0.12,0.554,0.331,0.743
	l2.243,2.019c0.19,0.171,0.43,0.257,0.669,0.257s0.479-0.086,0.669-0.257l2.088-1.879l2.088,1.879
	c0.19,0.171,0.43,0.257,0.669,0.257s0.479-0.086,0.669-0.257l2.243-2.019c0.211-0.189,0.331-0.46,0.331-0.743v-1
	c0-0.283-0.12-0.554-0.331-0.743L-159.706-36l1.375-1.238c0.211-0.189,0.331-0.46,0.331-0.743v-0.925
	c0-0.277-0.115-0.542-0.317-0.731l-2.242-2.094C-160.752-41.91-160.997-42-161.242-42L-161.242-42z"/>
<polygon fill="#774400" points="-185,-50 -182,-50 -182,-49 -182.958,-48 -180,-48 -180,-47 -187,-42 -187,-43 -185.5,-46 -188,-46 
	-188,-47 "/>
<path opacity="0.4" d="M-200,10h-2V8c0-1.104-0.896-2-2-2h-6c-0.53,0-1.039,0.211-1.414,0.586l-6,6
	C-217.789,12.961-218,13.47-218,14v2c0,1.104,0.896,2,2,2h1.764l-1.553,3.105C-215.928,21.383-216,21.689-216,22v2
	c0,0.75,0.419,1.436,1.085,1.779C-214.627,25.926-214.313,26-214,26c0.409,0,0.816-0.125,1.162-0.373l14-9.999
	C-198.312,15.252-198,14.646-198,14v-2C-198,10.896-198.896,10-200,10z M-214,22l4-8h-6l6-6h6l-4,4h8L-214,22z"/>
<linearGradient id="SVGID_1_" gradientUnits="userSpaceOnUse" x1="-164" y1="-32" x2="-164" y2="-41">
	<stop  offset="0" style="stop-color:#C11717"/>
	<stop  offset="1" style="stop-color:#D63232"/>
</linearGradient>
<polygon fill="url(#SVGID_1_)" points="-161.757,-36.5 -159,-38.981 -161.242,-41 -164,-38.519 -166.758,-41 -169,-38.981 
	-166.243,-36.5 -169,-34.019 -166.757,-32 -164,-34.481 -161.243,-32 -159,-34.019 "/>
<rect x="-150" y="-42" fill="#D63232" width="4" height="4"/>
<rect x="-150" y="-38" fill="#C11717" width="4" height="4"/>
<rect x="-150" y="-34" fill="#770600" width="4" height="4"/>
<path opacity="0.4" d="M-162,12.657v-2c0-0.577-0.248-1.125-0.684-1.505l-3.037-2.657C-166.098,6.165-166.566,6-167.037,6
	s-0.939,0.165-1.316,0.495L-172,9.686l-3.646-3.19C-176.023,6.165-176.492,6-176.963,6s-0.939,0.165-1.316,0.495l-3.037,2.657
	c-0.436,0.38-0.684,0.928-0.684,1.505v2c0,0.577,0.248,1.125,0.684,1.505l2.1,1.838l-2.1,1.837c-0.434,0.38-0.684,0.929-0.684,1.505
	v2c0,0.576,0.248,1.125,0.684,1.506l3.037,2.658c0.377,0.328,0.846,0.494,1.316,0.494s0.939-0.164,1.316-0.494l3.646-3.191
	l3.646,3.191c0.377,0.33,0.846,0.494,1.316,0.494s0.939-0.164,1.316-0.494l3.037-2.658c0.436-0.381,0.684-0.93,0.684-1.506v-2
	c0-0.576-0.25-1.125-0.684-1.505l-2.1-1.837l2.1-1.838C-162.248,13.782-162,13.234-162,12.657z M-168.963,15l4.963,4.342
	L-167.037,22L-172,17.657L-176.963,22L-180,19.342l4.963-4.342L-180,10.657L-176.963,8l4.963,4.343L-167.037,8l3.037,2.657
	L-168.963,15z"/>
<path opacity="0.4" d="M-182,46.833h-3c-0.265,0-0.52,0.105-0.707,0.293l-3,3c-0.188,0.188-0.293,0.442-0.293,0.707v1
	c0,0.552,0.448,1,1,1h0.882l-0.776,1.553c-0.069,0.139-0.105,0.292-0.105,0.447v1c0,0.375,0.209,0.718,0.542,0.89
	c0.144,0.073,0.301,0.11,0.458,0.11c0.205,0,0.408-0.063,0.581-0.187l7-5c0.263-0.188,0.419-0.49,0.419-0.813v-1
	c0-0.552-0.448-1-1-1h-1v-1C-181,47.281-181.448,46.833-182,46.833L-182,46.833z"/>
<path opacity="0.4" d="M-161.519,46.833c-0.235,0-0.47,0.083-0.658,0.247L-164,48.676l-1.823-1.596
	c-0.188-0.164-0.423-0.247-0.658-0.247s-0.47,0.083-0.658,0.247l-1.519,1.329c-0.218,0.19-0.342,0.464-0.342,0.753v1
	c0,0.288,0.124,0.563,0.342,0.752l1.05,0.919l-1.05,0.919c-0.217,0.189-0.342,0.464-0.342,0.752v1c0,0.288,0.124,0.563,0.342,0.753
	l1.519,1.329c0.188,0.164,0.423,0.247,0.658,0.247s0.47-0.082,0.658-0.247L-164,54.99l1.823,1.596
	c0.188,0.165,0.423,0.247,0.658,0.247s0.47-0.082,0.658-0.247l1.519-1.329c0.218-0.19,0.342-0.465,0.342-0.753v-1
	c0-0.288-0.125-0.563-0.342-0.752l-1.05-0.919l1.05-0.919c0.218-0.189,0.342-0.464,0.342-0.752v-1c0-0.289-0.124-0.563-0.342-0.753
	l-1.519-1.329C-161.049,46.916-161.283,46.833-161.519,46.833L-161.519,46.833z"/>
<linearGradient id="SVGID_2_" gradientUnits="userSpaceOnUse" x1="-184" y1="54.7969" x2="-184" y2="47.8276">
	<stop  offset="0" style="stop-color:#FFA506"/>
	<stop  offset="1" style="stop-color:#FFCE00"/>
</linearGradient>
<polygon fill="url(#SVGID_2_)" points="-185,47.833 -182,47.833 -184,49.833 -180,49.833 -187,54.833 -185,50.833 -188,50.833 "/>
<linearGradient id="SVGID_3_" gradientUnits="userSpaceOnUse" x1="-164" y1="54.833" x2="-164" y2="47.833">
	<stop  offset="0" style="stop-color:#C11717"/>
	<stop  offset="1" style="stop-color:#D63232"/>
</linearGradient>
<polygon fill="url(#SVGID_3_)" points="-162.481,51.333 -160,49.162 -161.519,47.833 -164,50.004 -166.481,47.833 -168,49.162 
	-165.519,51.333 -168,53.504 -166.481,54.833 -164,52.662 -161.519,54.833 -160,53.504 "/>
<rect x="-265" y="8" fill="#FFCE00" width="4" height="4"/>
<rect x="-265" y="12" fill="#FF8F08" width="4" height="4"/>
<rect x="-265" y="16" fill="#774400" width="4" height="4"/>
<rect x="-190.125" y="64.459" fill="#81C6C4" width="4" height="4"/>
<rect x="-190.125" y="68.459" fill="#619E9E" width="4" height="4"/>
<rect x="-190.125" y="72.459" fill="#3B5B5A" width="4" height="4"/>
<rect x="-277" y="8" fill="#FFCE00" width="4" height="4"/>
<rect x="-277" y="12" fill="#448400" width="4" height="4"/>
<rect x="-277" y="16" fill="#774400" width="4" height="4"/>
<g>
	<linearGradient id="SVGID_4_" gradientUnits="userSpaceOnUse" x1="-214.75" y1="99" x2="-214.75" y2="69">
		<stop  offset="0" style="stop-color:#BC4C2E"/>
		<stop  offset="1" style="stop-color:#C65944"/>
	</linearGradient>
	<rect x="-229.75" y="69" fill="url(#SVGID_4_)" width="30" height="30"/>
	<path fill="#4F170A" d="M-199.75,69v30h-30V69H-199.75 M-198.75,68h-32v32h32V68L-198.75,68z"/>
	<polygon fill="#D87264" points="-206.75,83 -212.75,83 -212.75,77 -216.75,77 -216.75,83 -222.75,83 -222.75,87 -216.75,87 
		-216.75,93 -212.75,93 -212.75,87 -206.75,87 	"/>
	<polygon fill="#4F170A" points="-206.75,82 -212.75,82 -212.75,76 -216.75,76 -216.75,82 -222.75,82 -222.75,86 -216.75,86 
		-216.75,92 -212.75,92 -212.75,86 -206.75,86 	"/>
	<rect x="-229.75" y="68" fill="#D87264" width="30" height="1"/>
</g>
<g>
	<linearGradient id="SVGID_5_" gradientUnits="userSpaceOnUse" x1="-163.25" y1="99" x2="-163.25" y2="69">
		<stop  offset="0" style="stop-color:#619E9E"/>
		<stop  offset="1" style="stop-color:#81C6C4"/>
	</linearGradient>
	<rect x="-178.25" y="69" fill="url(#SVGID_5_)" width="30" height="30"/>
	<path fill="#3B5B5A" d="M-148.25,69v30h-30V69H-148.25 M-147.25,68h-32v32h32V68L-147.25,68z"/>
	<polygon fill="#81C6C4" points="-155.25,83 -161.25,83 -161.25,77 -165.25,77 -165.25,83 -171.25,83 -171.25,87 -165.25,87 
		-165.25,93 -161.25,93 -161.25,87 -155.25,87 	"/>
	<polygon fill="#3B5B5A" points="-155.25,82 -161.25,82 -161.25,76 -165.25,76 -165.25,82 -171.25,82 -171.25,86 -165.25,86 
		-165.25,92 -161.25,92 -161.25,86 -155.25,86 	"/>
	<rect x="-178.25" y="68" fill="#81C6C4" width="30" height="1"/>
</g>
<rect x="-152" y="16" fill="#4F170A" width="16" height="16"/>
<linearGradient id="SVGID_6_" gradientUnits="userSpaceOnUse" x1="-144" y1="31" x2="-144" y2="17.0005">
	<stop  offset="0" style="stop-color:#BC4C2E"/>
	<stop  offset="1" style="stop-color:#C65944"/>
</linearGradient>
<rect x="-151" y="17" fill="url(#SVGID_6_)" width="14" height="14"/>
<rect x="-151" y="17" opacity="0.2" fill="#FFFFFF" width="14" height="1"/>
<rect x="-132" y="24" opacity="0.2" fill="#FFFFFF" width="32" height="1"/>
<rect x="-151" y="24" fill="#4F170A" width="14" height="1"/>
<rect x="-132" y="23" fill="#4F170A" width="32" height="1"/>
<rect x="-150" y="20" fill="#E3E5CF" width="1" height="3"/>
<rect x="-147" y="20" fill="#E3E5CF" width="1" height="3"/>
<polygon fill="#E3E5CF" points="-142,30 -146,30 -144,26 "/>
<rect x="-144" y="18" fill="#E3E5CF" width="1" height="5"/>
<rect x="-141" y="20" fill="#E3E5CF" width="1" height="3"/>
<rect x="-138" y="20" fill="#E3E5CF" width="1" height="3"/>
<rect x="-367" y="-81" fill="#E3E5CF" width="360" height="32"/>
<polygon fill="#E3E5CF" points="-111,17 -121,17 -116,7 "/>
<polygon fill="#E3E5CF" points="-121,31 -111,31 -116,41 "/>
<polygon points="-67,-40.093 -69.829,-42.922 -78.026,-34.724 -82.172,-38.869 -85,-36.041 -78.04,-29.078 "/>
<path opacity="0.4" d="M-69.829,14.078L-69.829,14.078c-0.53,0-1.039,0.211-1.414,0.586l-6.783,6.784l-2.731-2.731
	c-0.391-0.391-0.902-0.586-1.414-0.586s-1.023,0.195-1.414,0.586l-2.828,2.828C-86.789,21.92-87,22.429-87,22.959v2
	c0,0.53,0.211,1.039,0.586,1.414l6.96,6.963c0.39,0.391,0.902,0.586,1.414,0.586c0.511,0,1.022-0.194,1.412-0.584l11.04-11.015
	C-65.211,21.948-65,21.438-65,20.907v-2c0-0.53-0.211-1.039-0.586-1.414l-2.829-2.829C-68.79,14.289-69.299,14.078-69.829,14.078
	L-69.829,14.078z M-78.04,29.844L-85,22.881l2.828-2.828l4.146,4.146L-69.829,16L-67,18.829L-78.04,29.844z"/>
<g opacity="0.4">
	<path d="M-36,6c-5.514,0-10,4.038-10,9v2c0,4.962,4.486,9,10,9s10-4.038,10-9v-2C-26,10.038-30.486,6-36,6z M-36,22
		c-4.418,0-8-3.134-8-7s3.582-7,8-7s8,3.134,8,7S-31.582,22-36,22z"/>
	<polygon points="-35,11 -37,11 -37,16 -30,16 -30,14 -35,14 	"/>
</g>
<path d="M16-34c-5.514,0-10,4.038-10,9v2c0,4.962,4.486,9,10,9s10-4.038,10-9v-2C26-29.962,21.514-34,16-34z M16-18
	c-4.418,0-8-3.134-8-7s3.582-7,8-7s8,3.134,8,7S20.418-18,16-18z"/>
<g>
	<path d="M18.167-21c0,0.55-0.45,1-1,1h-2c-0.55,0-1-0.45-1-1v-8c0-0.55,0.45-1,1-1h2c0.55,0,1,0.45,1,1V-21z"/>
</g>
<polygon opacity="0.4" points="76,21.171 70.828,16 76,10.829 73.171,8 68,13.171 62.829,8 60,10.829 65.172,16 60,21.171 
	62.829,24 68,18.829 73.171,24 "/>
<g>
	<path fill="#FFFFFF" d="M34.685-17.641c-0.553,0-1-0.448-1-1c0-2.922,1.573-5.551,4.041-6.951
		c-0.667-0.862-1.041-1.927-1.041-3.049c0-2.757,2.243-5,5.001-5c2.757,0,4.999,2.243,4.999,5c0,1.122-0.374,2.188-1.041,3.049
		c2.468,1.4,4.041,4.029,4.041,6.951c0,0.552-0.447,1-1,1H34.685z"/>
	<path d="M41.686-32.641c2.209,0,3.999,1.792,3.999,4c0,1.405-0.728,2.636-1.823,3.35c2.8,0.916,4.823,3.546,4.823,6.65h-14
		c0-3.104,2.022-5.734,4.824-6.65c-1.097-0.714-1.824-1.945-1.824-3.35C37.685-30.85,39.475-32.641,41.686-32.641 M41.686-34.641
		c-3.309,0-6.001,2.691-6.001,6c0,0.974,0.234,1.913,0.667,2.749c-2.266,1.662-3.667,4.326-3.667,7.251c0,1.104,0.896,2,2,2h14
		c1.104,0,2-0.896,2-2c0-2.926-1.401-5.59-3.667-7.251c0.433-0.836,0.667-1.774,0.667-2.749
		C47.685-31.95,44.993-34.641,41.686-34.641L41.686-34.641z"/>
</g>
<rect x="-18.333" y="-15.083" width="16" height="16"/>
<g>
	<path d="M19,38v1.213c1.063,0.297,2.018,0.826,2.803,1.522l1.125-0.608l2,3.246l-1.124,0.609C23.928,44.47,24,44.977,24,45.5
		s-0.072,1.03-0.196,1.518l1.124,0.609l-2,3.246l-1.125-0.608c-0.785,0.696-1.739,1.226-2.803,1.522V53h-4v-1.213
		c-1.063-0.297-2.018-0.826-2.803-1.522l-1.125,0.608l-2-3.246l1.124-0.609C10.072,46.53,10,46.023,10,45.5s0.072-1.03,0.196-1.518
		l-1.124-0.609l2-3.246l1.125,0.608c0.785-0.696,1.739-1.226,2.803-1.522V38H19 M19,36h-4c-1.048,0-1.907,0.805-1.993,1.83
		c-0.337,0.16-0.664,0.34-0.979,0.539l-0.003-0.002c-0.302-0.163-0.629-0.241-0.95-0.241c-0.674,0-1.328,0.341-1.705,0.952l-2,3.246
		c-0.288,0.469-0.371,1.035-0.229,1.566c0.131,0.49,0.443,0.911,0.871,1.179C8.004,45.213,8,45.357,8,45.5s0.004,0.287,0.012,0.431
		c-0.428,0.268-0.74,0.688-0.871,1.179c-0.143,0.531-0.06,1.098,0.229,1.566l2,3.246c0.377,0.611,1.031,0.952,1.705,0.952
		c0.321,0,0.648-0.078,0.95-0.241l0.003-0.002c0.315,0.199,0.643,0.379,0.979,0.539C13.093,54.195,13.952,55,15,55h4
		c1.048,0,1.907-0.805,1.993-1.83c0.337-0.16,0.664-0.34,0.979-0.539l0.003,0.002c0.302,0.163,0.629,0.241,0.95,0.241
		c0.674,0,1.328-0.341,1.705-0.952l2-3.246c0.288-0.469,0.371-1.035,0.229-1.566c-0.131-0.49-0.443-0.911-0.871-1.179
		C25.996,45.787,26,45.643,26,45.5s-0.004-0.287-0.012-0.431c0.428-0.268,0.74-0.688,0.871-1.179
		c0.143-0.531,0.06-1.098-0.229-1.566l-2-3.246c-0.377-0.611-1.031-0.952-1.705-0.952c-0.321,0-0.648,0.078-0.95,0.241l-0.003,0.002
		c-0.315-0.199-0.643-0.379-0.979-0.539C20.907,36.805,20.048,36,19,36L19,36z"/>
</g>
<g>
	<path d="M19,38v1.213c1.063,0.297,2.018,0.826,2.803,1.522l1.125-0.608l2,3.246l-0.924,0.5l0.924,1.5l-0.954,0.517
		c-0.014,0.206-0.035,0.41-0.069,0.61c0.034,0.2,0.056,0.404,0.069,0.61l0.954,0.517l-0.924,1.5l0.924,0.5l-2,3.246l-1.125-0.608
		c-0.785,0.696-1.739,1.226-2.803,1.522V55h-4v-1.213c-1.063-0.297-2.018-0.826-2.803-1.522l-1.125,0.608l-2-3.246l0.924-0.5
		l-0.924-1.5l0.954-0.517c0.014-0.206,0.035-0.41,0.069-0.61c-0.034-0.2-0.056-0.404-0.069-0.61l-0.954-0.517l0.924-1.5l-0.924-0.5
		l2-3.246l1.125,0.608c0.785-0.696,1.739-1.226,2.803-1.522V38H19 M19,36h-4c-1.048,0-1.907,0.805-1.993,1.83
		c-0.337,0.16-0.664,0.34-0.979,0.539l-0.003-0.002c-0.302-0.163-0.629-0.241-0.95-0.241c-0.674,0-1.328,0.341-1.705,0.952l-2,3.246
		c-0.288,0.469-0.371,1.035-0.229,1.566c0.045,0.17,0.113,0.332,0.199,0.482c-0.265,0.459-0.337,1.004-0.199,1.518
		c0.059,0.22,0.153,0.426,0.279,0.609c-0.126,0.184-0.221,0.39-0.279,0.609c-0.138,0.514-0.065,1.059,0.199,1.518
		c-0.086,0.15-0.154,0.313-0.199,0.482c-0.143,0.531-0.06,1.098,0.229,1.566l2,3.246c0.377,0.611,1.031,0.952,1.705,0.952
		c0.321,0,0.648-0.078,0.95-0.241l0.003-0.002c0.315,0.199,0.643,0.379,0.979,0.539C13.093,56.195,13.952,57,15,57h4
		c1.048,0,1.907-0.805,1.993-1.83c0.337-0.16,0.664-0.34,0.979-0.539l0.003,0.002c0.302,0.163,0.629,0.241,0.95,0.241
		c0.674,0,1.328-0.341,1.705-0.952l2-3.246c0.288-0.469,0.371-1.035,0.229-1.566c-0.045-0.17-0.113-0.332-0.199-0.482
		c0.265-0.459,0.337-1.004,0.199-1.518c-0.059-0.22-0.153-0.426-0.279-0.609c0.126-0.184,0.221-0.39,0.279-0.609
		c0.138-0.514,0.065-1.059-0.199-1.518c0.086-0.15,0.154-0.313,0.199-0.482c0.143-0.531,0.06-1.098-0.229-1.566l-2-3.246
		c-0.377-0.611-1.031-0.952-1.705-0.952c-0.321,0-0.648,0.078-0.95,0.241l-0.003,0.002c-0.315-0.199-0.643-0.379-0.979-0.539
		C20.907,36.805,20.048,36,19,36L19,36z"/>
</g>
<path d="M19,38v1.213c1.063,0.297,2.018,0.826,2.803,1.522l1.125-0.608l2,3.246l-1.124,0.609C23.928,44.47,24,44.977,24,45.5
	s-0.072,1.03-0.196,1.518l1.124,0.609l-2,3.246l-1.125-0.608c-0.785,0.696-1.739,1.226-2.803,1.522V53h-4v-1.213
	c-1.063-0.297-2.018-0.826-2.803-1.522l-1.125,0.608l-2-3.246l1.124-0.609C10.072,46.53,10,46.023,10,45.5s0.072-1.03,0.196-1.518
	l-1.124-0.609l2-3.246l1.125,0.608c0.785-0.696,1.739-1.226,2.803-1.522V38H19 M19,36h-4c-1.048,0-1.907,0.805-1.993,1.83
	c-0.337,0.16-0.664,0.34-0.979,0.539l-0.003-0.002c-0.302-0.163-0.629-0.241-0.95-0.241c-0.674,0-1.328,0.341-1.705,0.952l-2,3.246
	c-0.288,0.469-0.371,1.035-0.229,1.566c0.131,0.49,0.443,0.911,0.871,1.179C8.004,45.213,8,45.357,8,45.5s0.004,0.287,0.012,0.431
	c-0.428,0.268-0.74,0.688-0.871,1.179c-0.143,0.531-0.06,1.098,0.229,1.566l2,3.246c0.377,0.611,1.031,0.952,1.705,0.952
	c0.321,0,0.648-0.078,0.95-0.241l0.003-0.002c0.315,0.199,0.643,0.379,0.979,0.539C13.093,54.195,13.952,55,15,55h4
	c1.048,0,1.907-0.805,1.993-1.83c0.337-0.16,0.664-0.34,0.979-0.539l0.003,0.002c0.302,0.163,0.629,0.241,0.95,0.241
	c0.674,0,1.328-0.341,1.705-0.952l2-3.246c0.288-0.469,0.371-1.035,0.229-1.566c-0.131-0.49-0.443-0.911-0.871-1.179
	C25.996,45.787,26,45.643,26,45.5s-0.004-0.287-0.012-0.431c0.428-0.268,0.74-0.688,0.871-1.179c0.143-0.531,0.06-1.098-0.229-1.566
	l-2-3.246c-0.377-0.611-1.031-0.952-1.705-0.952c-0.321,0-0.648,0.078-0.95,0.241l-0.003,0.002
	c-0.315-0.199-0.643-0.379-0.979-0.539C20.907,36.805,20.048,36,19,36L19,36z"/>
<path opacity="0.4" d="M-41.485,41.833h-4.029c-1.056,0-1.921,0.767-2.008,1.743c-0.339,0.152-0.669,0.324-0.986,0.514l-0.003-0.002
	c-0.304-0.156-0.634-0.23-0.957-0.23c-0.679,0-1.338,0.324-1.718,0.906l-2.015,3.093c-0.197,0.304-0.299,0.65-0.299,1.001v5.938
	c-0.004,0.354,0.099,0.707,0.299,1.015l2.015,3.093c0.38,0.582,1.039,0.906,1.718,0.906c0.323,0,0.653-0.074,0.957-0.23l0.003-0.002
	c0.317,0.189,0.647,0.361,0.986,0.514c0.087,0.977,0.952,1.743,2.008,1.743h4.029c1.056,0,1.921-0.767,2.008-1.743
	c0.339-0.152,0.669-0.324,0.986-0.514l0.003,0.002c0.304,0.156,0.634,0.23,0.957,0.23c0.679,0,1.338-0.324,1.718-0.906l2.015-3.093
	c0.208-0.321,0.311-0.69,0.298-1.062l-0.003-5.784c0.023-0.386-0.078-0.772-0.295-1.107l-2.015-3.093
	c-0.38-0.582-1.039-0.906-1.718-0.906c-0.323,0-0.653,0.074-0.957,0.23l-0.003,0.002c-0.317-0.189-0.647-0.361-0.986-0.514
	C-39.564,42.6-40.43,41.833-41.485,41.833L-41.485,41.833z M-41.5,43.833v1.132c1.063,0.277,2.018,0.771,2.803,1.422l1.125-0.568
	l2,3.029l-1.124,0.568c0.124,0.455,0.196,0.928,0.196,1.417s-0.072,0.962-0.196,1.417l1.124,0.568l-2,3.029l-1.125-0.568
	c-0.785,0.65-1.739,1.145-2.803,1.422v1.132h-4v-1.132c-1.063-0.277-2.018-0.771-2.803-1.422l-1.125,0.568l-2-3.029l1.124-0.568
	c-0.124-0.455-0.196-0.928-0.196-1.417s0.072-0.962,0.196-1.417l-1.124-0.568l2-3.029l1.125,0.568
	c0.785-0.65,1.739-1.145,2.803-1.422v-1.132H-41.5 M-41.5,50.833c0,0.967-0.896,1.75-2,1.75s-2-0.783-2-1.75s0.896-1.75,2-1.75
	S-41.5,49.866-41.5,50.833z"/>
<path d="M-11,46h-4c-1.048,0-1.907,0.805-1.993,1.83c-0.337,0.16-0.664,0.34-0.979,0.539l-0.003-0.002
	c-0.302-0.163-0.629-0.241-0.95-0.241c-0.674,0-1.328,0.341-1.705,0.952l-2,3.246c-0.196,0.319-0.297,0.684-0.297,1.051v6.234
	c-0.004,0.373,0.098,0.742,0.297,1.066l2,3.246c0.377,0.611,1.031,0.952,1.705,0.952c0.321,0,0.648-0.078,0.95-0.241l0.003-0.002
	c0.315,0.199,0.643,0.379,0.979,0.539C-16.907,66.195-16.048,67-15,67h4c1.048,0,1.907-0.805,1.993-1.83
	c0.337-0.16,0.664-0.34,0.979-0.539l0.003,0.002c0.302,0.163,0.629,0.241,0.95,0.241c0.674,0,1.328-0.341,1.705-0.952l2-3.246
	c0.207-0.338,0.309-0.725,0.296-1.114l-0.003-6.074c0.023-0.405-0.077-0.812-0.293-1.163l-2-3.246
	c-0.377-0.611-1.031-0.952-1.705-0.952c-0.321,0-0.648,0.078-0.95,0.241l-0.003,0.002C-8.343,48.17-8.67,47.99-9.007,47.83
	C-9.093,46.805-9.952,46-11,46L-11,46z"/>
<path fill="#FFFFFF" d="M-11,48v1.132c1.063,0.277,2.018,0.771,2.803,1.421l1.125-0.567l2,3.029l-1.124,0.569
	C-6.072,54.038-6,54.512-6,55s-0.072,0.962-0.196,1.416l1.124,0.569l-2,3.029l-1.125-0.567c-0.785,0.649-1.739,1.144-2.803,1.421V62
	h-4v-1.132c-1.063-0.277-2.018-0.771-2.803-1.421l-1.125,0.567l-2-3.029l1.124-0.569C-19.928,55.962-20,55.488-20,55
	s0.072-0.962,0.196-1.416l-1.124-0.569l2-3.029l1.125,0.567c0.785-0.649,1.739-1.144,2.803-1.421V48H-11"/>
<ellipse cx="-13" cy="55.5" rx="2" ry="1.875"/>
<rect x="-27.072" y="-39.078" transform="matrix(0.866 0.5 -0.5 0.866 -21.0955 4.5686)" width="15.999" height="4"/>
<rect x="-27.072" y="-39.078" transform="matrix(0.866 -0.5 0.5 0.866 15.9845 -14.5047)" width="15.999" height="4"/>
<rect x="-21.072" y="-45.078" width="4" height="16"/>
<circle cx="-19.072" cy="-37.078" r="7"/>
<path d="M22-8c0-0.328-0.039-0.646-0.104-0.958l2.032-1.027l-2-3.03l-2.033,1.026C19.342-12.403,18.7-12.727,18-12.945V-15h-4v2.055
	c-0.7,0.218-1.342,0.542-1.895,0.956l-2.033-1.026l-2,3.03l2.032,1.027C10.039-8.646,10-8.328,10-8s0.039,0.646,0.104,0.958
	L8.072-6.015l2,3.03l2.033-1.026C12.658-3.597,13.3-3.273,14-3.055V-1h4v-2.055c0.7-0.218,1.342-0.542,1.895-0.956l2.033,1.026
	l2-3.03l-2.032-1.027C21.961-7.354,22-7.672,22-8z"/>
<rect x="18.928" y="-56" transform="matrix(0.866 0.5 -0.5 0.866 -23.3933 -20.7)" width="15.999" height="4"/>
<rect x="18.928" y="-56" transform="matrix(0.866 -0.5 0.5 0.866 30.6094 6.2291)" width="15.999" height="4"/>
<rect x="24.928" y="-62" width="4" height="16"/>
<circle cx="26.928" cy="-54" r="6"/>
<path opacity="0.4" d="M25.999,18.905c0.002,0.416-0.098,0.829-0.331,1.181l-2.016,3.03c-0.383,0.578-1.023,0.898-1.682,0.898
	c-0.308,0-0.632-0.069-0.922-0.214L20,23.282V24c0,1.104-0.873,2-1.985,2h-4.029C12.873,26,12,25.104,12,24v-0.718l-1.049,0.519
	c-0.29,0.145-0.607,0.214-0.914,0.214c-0.658,0-1.303-0.32-1.686-0.898l-2.017-3.03c-0.237-0.357-0.327-0.777-0.331-1.197
	C6,18.5,5.999,13.703,5.999,13.021c0-0.39,0.113-0.775,0.334-1.107l2.015-3.03c0.383-0.578,1.023-0.899,1.682-0.898
	c0.308,0,0.632,0.069,0.922,0.214L12,8.718V8c0-1.104,0.873-2,1.985-2h4.029C19.127,6,20,6.896,20,8v0.718l1.049-0.519
	c0.29-0.145,0.607-0.215,0.914-0.214c0.658,0,1.303,0.32,1.686,0.898l2.018,3.03c0.236,0.357,0.328,0.776,0.331,1.197
	C25.999,13.375,25.997,18.469,25.999,18.905z M22,15c0-0.328-0.039-0.646-0.104-0.958l2.032-1.027l-2-3.03l-2.033,1.026
	C19.342,10.597,18.7,10.273,18,10.055V8h-4v2.055c-0.7,0.218-1.342,0.542-1.895,0.956l-2.033-1.026l-2,3.03l2.032,1.027
	C10.039,14.354,10,14.672,10,15s0.039,0.646,0.104,0.958l-2.032,1.027l2,3.03l2.033-1.026c0.553,0.414,1.194,0.738,1.895,0.956V22h4
	v-2.055c0.7-0.218,1.342-0.542,1.895-0.956l2.033,1.026l2-3.03l-2.032-1.027C21.961,15.646,22,15.328,22,15z M16,12.375
	c-1.657,0-3,1.175-3,2.625s1.343,2.625,3,2.625S19,16.45,19,15S17.657,12.375,16,12.375z"/>
</svg>
