<?xml version="1.0" encoding="utf-8"?>
<!-- Generator: Adobe Illustrator 16.2.0, SVG Export Plug-In . SVG Version: 6.00 Build 0)  -->
<!DOCTYPE svg PUBLIC "-//W3C//DTD SVG 1.1//EN" "http://www.w3.org/Graphics/SVG/1.1/DTD/svg11.dtd">
<svg version="1.1" id="Layer_1" xmlns="http://www.w3.org/2000/svg" xmlns:xlink="http://www.w3.org/1999/xlink" x="0px" y="0px"
	 width="32px" height="32px" viewBox="0 0 32 32" enable-background="new 0 0 32 32" xml:space="preserve">
<g opacity="0.4">
	<path d="M-16-4.088c-4.963,0-9-3.589-9-8v-2c0-4.411,4.037-8,9-8s9,3.589,9,8v2C-7-7.677-11.037-4.088-16-4.088z"/>
	<g>
		<path d="M-16-21.088c4.418,0,8,3.134,8,7c0,0.169,0,1.831,0,2c0,3.866-3.582,7-8,7s-8-3.134-8-7c0-0.169,0-1.831,0-2
			C-24-17.954-20.418-21.088-16-21.088 M-16-23.088c-5.514,0-10,4.038-10,9v2c0,4.962,4.486,9,10,9s10-4.038,10-9v-2
			C-6-19.05-10.486-23.088-16-23.088L-16-23.088z"/>
	</g>
</g>
<polygon fill="#770600" points="-141.91,-46 -140,-47.671 -140,-48.671 -141.519,-50 -144,-47.829 -146.481,-50 -148,-48.671 
	-148,-47.671 -146.09,-46 -148,-44.329 -148,-43.329 -146.481,-42 -144,-44.172 -141.519,-42 -140,-43.329 -140,-44.329 "/>
<polygon fill="#8E3313" points="-141.201,-36 -139,-37.981 -139,-38.906 -141.242,-41 -144,-38.519 -146.758,-41 -149,-38.981 
	-149,-37.981 -146.799,-36 -149,-34.019 -149,-33.019 -146.757,-31 -144,-33.481 -141.243,-31 -139,-33.019 -139,-34.019 "/>
<path opacity="0.4" d="M-141.242-41l2.242,2.094v0.925L-141.201-36l2.201,1.981v1L-141.243-31L-144-33.481L-146.757-31L-149-33.019
	v-1l2.201-1.981L-149-37.981v-1l2.242-2.019l2.758,2.481L-141.242-41 M-141.242-42c-0.239,0-0.479,0.085-0.669,0.257L-144-39.864
	l-2.089-1.879c-0.19-0.171-0.43-0.257-0.669-0.257s-0.479,0.085-0.669,0.257l-2.242,2.019c-0.211,0.189-0.331,0.46-0.331,0.743v1
	c0,0.283,0.12,0.554,0.331,0.743l1.375,1.238l-1.375,1.238c-0.211,0.189-0.331,0.46-0.331,0.743v1c0,0.283,0.12,0.554,0.331,0.743
	l2.243,2.019c0.19,0.171,0.43,0.257,0.669,0.257s0.479-0.086,0.669-0.257l2.088-1.879l2.088,1.879
	c0.19,0.171,0.43,0.257,0.669,0.257s0.479-0.086,0.669-0.257l2.243-2.019c0.211-0.189,0.331-0.46,0.331-0.743v-1
	c0-0.283-0.12-0.554-0.331-0.743L-139.706-36l1.375-1.238c0.211-0.189,0.331-0.46,0.331-0.743v-0.925
	c0-0.277-0.115-0.542-0.317-0.731l-2.242-2.094C-140.752-41.91-140.997-42-141.242-42L-141.242-42z"/>
<polygon fill="#774400" points="-165,-50 -162,-50 -162,-49 -162.958,-48 -160,-48 -160,-47 -167,-42 -167,-43 -165.5,-46 -168,-46 
	-168,-47 "/>
<path opacity="0.4" d="M-180,10h-2V8c0-1.104-0.896-2-2-2h-6c-0.53,0-1.039,0.211-1.414,0.586l-6,6
	C-197.789,12.961-198,13.47-198,14v2c0,1.104,0.896,2,2,2h1.764l-1.553,3.105C-195.928,21.383-196,21.689-196,22v2
	c0,0.75,0.419,1.436,1.085,1.779C-194.627,25.926-194.313,26-194,26c0.409,0,0.816-0.125,1.162-0.373l14-9.999
	C-178.312,15.252-178,14.646-178,14v-2C-178,10.896-178.896,10-180,10z M-194,22l4-8h-6l6-6h6l-4,4h8L-194,22z"/>
<linearGradient id="SVGID_1_" gradientUnits="userSpaceOnUse" x1="-144" y1="-32" x2="-144" y2="-41">
	<stop  offset="0" style="stop-color:#C11717"/>
	<stop  offset="1" style="stop-color:#D63232"/>
</linearGradient>
<polygon fill="url(#SVGID_1_)" points="-141.757,-36.5 -139,-38.981 -141.242,-41 -144,-38.519 -146.758,-41 -149,-38.981 
	-146.243,-36.5 -149,-34.019 -146.757,-32 -144,-34.481 -141.243,-32 -139,-34.019 "/>
<rect x="-130" y="-42" fill="#D63232" width="4" height="4"/>
<rect x="-130" y="-38" fill="#C11717" width="4" height="4"/>
<rect x="-130" y="-34" fill="#770600" width="4" height="4"/>
<path opacity="0.4" d="M-142,12.657v-2c0-0.577-0.248-1.125-0.684-1.505l-3.037-2.657C-146.098,6.165-146.566,6-147.037,6
	s-0.939,0.165-1.316,0.495L-152,9.686l-3.646-3.19C-156.023,6.165-156.492,6-156.963,6s-0.939,0.165-1.316,0.495l-3.037,2.657
	c-0.436,0.38-0.684,0.928-0.684,1.505v2c0,0.577,0.248,1.125,0.684,1.505l2.1,1.838l-2.1,1.837c-0.434,0.38-0.684,0.929-0.684,1.505
	v2c0,0.576,0.248,1.125,0.684,1.506l3.037,2.658c0.377,0.328,0.846,0.494,1.316,0.494s0.939-0.164,1.316-0.494l3.646-3.191
	l3.646,3.191c0.377,0.33,0.846,0.494,1.316,0.494s0.939-0.164,1.316-0.494l3.037-2.658c0.436-0.381,0.684-0.93,0.684-1.506v-2
	c0-0.576-0.25-1.125-0.684-1.505l-2.1-1.837l2.1-1.838C-142.248,13.782-142,13.234-142,12.657z M-148.963,15l4.963,4.342
	L-147.037,22L-152,17.657L-156.963,22L-160,19.342l4.963-4.342L-160,10.657L-156.963,8l4.963,4.343L-147.037,8l3.037,2.657
	L-148.963,15z"/>
<path opacity="0.4" d="M-162,46.833h-3c-0.265,0-0.52,0.105-0.707,0.293l-3,3c-0.188,0.188-0.293,0.442-0.293,0.707v1
	c0,0.552,0.448,1,1,1h0.882l-0.776,1.553c-0.069,0.139-0.105,0.292-0.105,0.447v1c0,0.375,0.209,0.718,0.542,0.89
	c0.144,0.073,0.301,0.11,0.458,0.11c0.205,0,0.408-0.063,0.581-0.187l7-5c0.263-0.188,0.419-0.49,0.419-0.813v-1
	c0-0.552-0.448-1-1-1h-1v-1C-161,47.281-161.448,46.833-162,46.833L-162,46.833z"/>
<path opacity="0.4" d="M-141.519,46.833c-0.235,0-0.47,0.083-0.658,0.247L-144,48.676l-1.823-1.596
	c-0.188-0.164-0.423-0.247-0.658-0.247s-0.47,0.083-0.658,0.247l-1.519,1.329c-0.218,0.19-0.342,0.464-0.342,0.753v1
	c0,0.288,0.124,0.563,0.342,0.752l1.05,0.919l-1.05,0.919c-0.217,0.189-0.342,0.464-0.342,0.752v1c0,0.288,0.124,0.563,0.342,0.753
	l1.519,1.329c0.188,0.164,0.423,0.247,0.658,0.247s0.47-0.082,0.658-0.247L-144,54.99l1.823,1.596
	c0.188,0.165,0.423,0.247,0.658,0.247s0.47-0.082,0.658-0.247l1.519-1.329c0.218-0.19,0.342-0.465,0.342-0.753v-1
	c0-0.288-0.125-0.563-0.342-0.752l-1.05-0.919l1.05-0.919c0.218-0.189,0.342-0.464,0.342-0.752v-1c0-0.289-0.124-0.563-0.342-0.753
	l-1.519-1.329C-141.049,46.916-141.283,46.833-141.519,46.833L-141.519,46.833z"/>
<linearGradient id="SVGID_2_" gradientUnits="userSpaceOnUse" x1="-164" y1="54.7969" x2="-164" y2="47.8276">
	<stop  offset="0" style="stop-color:#FFA506"/>
	<stop  offset="1" style="stop-color:#FFCE00"/>
</linearGradient>
<polygon fill="url(#SVGID_2_)" points="-165,47.833 -162,47.833 -164,49.833 -160,49.833 -167,54.833 -165,50.833 -168,50.833 "/>
<linearGradient id="SVGID_3_" gradientUnits="userSpaceOnUse" x1="-144" y1="54.833" x2="-144" y2="47.833">
	<stop  offset="0" style="stop-color:#C11717"/>
	<stop  offset="1" style="stop-color:#D63232"/>
</linearGradient>
<polygon fill="url(#SVGID_3_)" points="-142.481,51.333 -140,49.162 -141.519,47.833 -144,50.004 -146.481,47.833 -148,49.162 
	-145.519,51.333 -148,53.504 -146.481,54.833 -144,52.662 -141.519,54.833 -140,53.504 "/>
<rect x="-245" y="8" fill="#FFCE00" width="4" height="4"/>
<rect x="-245" y="12" fill="#FF8F08" width="4" height="4"/>
<rect x="-245" y="16" fill="#774400" width="4" height="4"/>
<rect x="-170.125" y="64.459" fill="#81C6C4" width="4" height="4"/>
<rect x="-170.125" y="68.459" fill="#619E9E" width="4" height="4"/>
<rect x="-170.125" y="72.459" fill="#3B5B5A" width="4" height="4"/>
<rect x="-257" y="8" fill="#FFCE00" width="4" height="4"/>
<rect x="-257" y="12" fill="#448400" width="4" height="4"/>
<rect x="-257" y="16" fill="#774400" width="4" height="4"/>
<g>
	<linearGradient id="SVGID_4_" gradientUnits="userSpaceOnUse" x1="-194.75" y1="99" x2="-194.75" y2="69">
		<stop  offset="0" style="stop-color:#BC4C2E"/>
		<stop  offset="1" style="stop-color:#C65944"/>
	</linearGradient>
	<rect x="-209.75" y="69" fill="url(#SVGID_4_)" width="30" height="30"/>
	<path fill="#4F170A" d="M-179.75,69v30h-30V69H-179.75 M-178.75,68h-32v32h32V68L-178.75,68z"/>
	<polygon fill="#D87264" points="-186.75,83 -192.75,83 -192.75,77 -196.75,77 -196.75,83 -202.75,83 -202.75,87 -196.75,87 
		-196.75,93 -192.75,93 -192.75,87 -186.75,87 	"/>
	<polygon fill="#4F170A" points="-186.75,82 -192.75,82 -192.75,76 -196.75,76 -196.75,82 -202.75,82 -202.75,86 -196.75,86 
		-196.75,92 -192.75,92 -192.75,86 -186.75,86 	"/>
	<rect x="-209.75" y="68" fill="#D87264" width="30" height="1"/>
</g>
<g>
	<linearGradient id="SVGID_5_" gradientUnits="userSpaceOnUse" x1="-143.25" y1="99" x2="-143.25" y2="69">
		<stop  offset="0" style="stop-color:#619E9E"/>
		<stop  offset="1" style="stop-color:#81C6C4"/>
	</linearGradient>
	<rect x="-158.25" y="69" fill="url(#SVGID_5_)" width="30" height="30"/>
	<path fill="#3B5B5A" d="M-128.25,69v30h-30V69H-128.25 M-127.25,68h-32v32h32V68L-127.25,68z"/>
	<polygon fill="#81C6C4" points="-135.25,83 -141.25,83 -141.25,77 -145.25,77 -145.25,83 -151.25,83 -151.25,87 -145.25,87 
		-145.25,93 -141.25,93 -141.25,87 -135.25,87 	"/>
	<polygon fill="#3B5B5A" points="-135.25,82 -141.25,82 -141.25,76 -145.25,76 -145.25,82 -151.25,82 -151.25,86 -145.25,86 
		-145.25,92 -141.25,92 -141.25,86 -135.25,86 	"/>
	<rect x="-158.25" y="68" fill="#81C6C4" width="30" height="1"/>
</g>
<rect x="-132" y="16" fill="#4F170A" width="16" height="16"/>
<linearGradient id="SVGID_6_" gradientUnits="userSpaceOnUse" x1="-124" y1="31" x2="-124" y2="17.0005">
	<stop  offset="0" style="stop-color:#BC4C2E"/>
	<stop  offset="1" style="stop-color:#C65944"/>
</linearGradient>
<rect x="-131" y="17" fill="url(#SVGID_6_)" width="14" height="14"/>
<rect x="-131" y="17" opacity="0.2" fill="#FFFFFF" width="14" height="1"/>
<rect x="-112" y="24" opacity="0.2" fill="#FFFFFF" width="32" height="1"/>
<rect x="-131" y="24" fill="#4F170A" width="14" height="1"/>
<rect x="-112" y="23" fill="#4F170A" width="32" height="1"/>
<rect x="-130" y="20" fill="#E3E5CF" width="1" height="3"/>
<rect x="-127" y="20" fill="#E3E5CF" width="1" height="3"/>
<polygon fill="#E3E5CF" points="-122,30 -126,30 -124,26 "/>
<rect x="-124" y="18" fill="#E3E5CF" width="1" height="5"/>
<rect x="-121" y="20" fill="#E3E5CF" width="1" height="3"/>
<rect x="-118" y="20" fill="#E3E5CF" width="1" height="3"/>
<rect x="-347" y="-81" fill="#E3E5CF" width="360" height="32"/>
<polygon fill="#E3E5CF" points="-91,17 -101,17 -96,7 "/>
<polygon fill="#E3E5CF" points="-101,31 -91,31 -96,41 "/>
<polygon points="-47,-40.093 -49.829,-42.922 -58.026,-34.724 -62.172,-38.869 -65,-36.041 -58.04,-29.078 "/>
<path opacity="0.4" d="M-53.829,6.078L-53.829,6.078c-0.53,0-1.039,0.211-1.414,0.586l-6.783,6.784l-2.731-2.731
	c-0.391-0.391-0.902-0.586-1.414-0.586s-1.023,0.195-1.414,0.586l-2.828,2.828C-70.789,13.92-71,14.429-71,14.959v2
	c0,0.53,0.211,1.039,0.586,1.414l6.96,6.963c0.39,0.391,0.902,0.586,1.414,0.586c0.511,0,1.022-0.194,1.412-0.584l11.04-11.015
	C-49.211,13.948-49,13.438-49,12.907v-2c0-0.53-0.211-1.039-0.586-1.414l-2.829-2.829C-52.79,6.289-53.299,6.078-53.829,6.078
	L-53.829,6.078z M-62.04,21.844L-69,14.881l2.828-2.828l4.146,4.146L-53.829,8L-51,10.829L-62.04,21.844z"/>
<g opacity="0.4">
	<path d="M-22,6c-5.514,0-10,4.038-10,9v2c0,4.962,4.486,9,10,9s10-4.038,10-9v-2C-12,10.038-16.486,6-22,6z M-22,22
		c-4.418,0-8-3.134-8-7s3.582-7,8-7s8,3.134,8,7S-17.582,22-22,22z"/>
	<polygon points="-21,11 -23,11 -23,16 -16,16 -16,14 -21,14 	"/>
</g>
<path d="M20-23.243v2.188c2.389,1.211,4,3.466,4,6.056c0,3.866-3.582,7-8,7s-8-3.134-8-7c0-2.589,1.611-4.845,4-6.056v-2.188
	C8.473-21.851,6-18.682,6-15v2c0,4.962,4.486,9,10,9s10-4.038,10-9v-2C26-18.682,23.527-21.851,20-23.243z"/>
<g opacity="0.4">
	<g>
		<path d="M18,14c0,1.1-0.9,2-2,2l0,0c-1.1,0-2-0.9-2-2V8c0-1.1,0.9-2,2-2l0,0c1.1,0,2,0.9,2,2V14z"/>
	</g>
	<path d="M21.512,7.49c-0.474-0.281-1.089-0.126-1.371,0.348s-0.127,1.088,0.348,1.371C22.688,10.517,24,12.682,24,15
		c0,3.86-3.589,7-8,7s-8-3.14-8-7c0-2.318,1.313-4.483,3.512-5.792c0.475-0.283,0.63-0.896,0.348-1.371
		c-0.283-0.475-0.897-0.629-1.371-0.348C7.678,9.163,6,11.97,6,15v2c0,4.962,4.486,9,10,9s10-4.038,10-9v-2
		C26,11.97,24.322,9.163,21.512,7.49z"/>
</g>
</svg>
