<?xml version="1.0" encoding="utf-8"?>
<!-- Generator: Adobe Illustrator 16.2.0, SVG Export Plug-In . SVG Version: 6.00 Build 0)  -->
<!DOCTYPE svg PUBLIC "-//W3C//DTD SVG 1.1//EN" "http://www.w3.org/Graphics/SVG/1.1/DTD/svg11.dtd">
<svg version="1.1" id="Layer_1" xmlns="http://www.w3.org/2000/svg" xmlns:xlink="http://www.w3.org/1999/xlink" x="0px" y="0px"
	 width="32px" height="32px" viewBox="0 0 32 32" enable-background="new 0 0 32 32" xml:space="preserve">
<path opacity="0.4" d="M24,6H8C6.896,6,6,6.896,6,8v16c0,1.104,0.896,2,2,2h16c1.104,0,2-0.896,2-2V8C26,6.896,25.104,6,24,6z M8,8
	h2v2H8V8z M8,12h2v2H8V12z M8,16h2v2H8V16z M8,22v-2h2v2H8z M24,22H12v-2h12V22z M24,18H12v-2h12V18z M24,14H12v-2h12V14z M24,10H12
	V8h12V10z"/>
</svg>
