<?xml version="1.0" encoding="utf-8"?>
<!-- Generator: Adobe Illustrator 16.0.0, SVG Export Plug-In . SVG Version: 6.00 Build 0)  -->
<!DOCTYPE svg PUBLIC "-//W3C//DTD SVG 1.1//EN" "http://www.w3.org/Graphics/SVG/1.1/DTD/svg11.dtd">
<svg version="1.1" id="Layer_1" xmlns="http://www.w3.org/2000/svg" xmlns:xlink="http://www.w3.org/1999/xlink" x="0px" y="0px"
	 width="16px" height="16px" viewBox="0 0 16 16" enable-background="new 0 0 16 16" xml:space="preserve">
<path opacity="0.4" d="M12,5h-1V4c0-0.552-0.448-1-1-1H7C6.735,3,6.48,3.105,6.293,3.293l-3,3C3.105,6.48,3,6.735,3,7v1
	c0,0.552,0.448,1,1,1h0.882l-0.776,1.553C4.036,10.691,4,10.845,4,11v1c0,0.375,0.209,0.718,0.542,0.89C4.687,12.963,4.844,13,5,13
	c0.205,0,0.408-0.063,0.581-0.187l7-5C12.844,7.626,13,7.323,13,7V6C13,5.448,12.552,5,12,5z M5,11l2-4H4l3-3h3L8,6h4L5,11z"/>
</svg>
