<?xml version="1.0" encoding="utf-8"?>
<!-- Generator: Adobe Illustrator 16.2.0, SVG Export Plug-In . SVG Version: 6.00 Build 0)  -->
<!DOCTYPE svg PUBLIC "-//W3C//DTD SVG 1.1//EN" "http://www.w3.org/Graphics/SVG/1.1/DTD/svg11.dtd">
<svg version="1.1" id="Layer_1" xmlns="http://www.w3.org/2000/svg" xmlns:xlink="http://www.w3.org/1999/xlink" x="0px" y="0px"
	 width="32px" height="32px" viewBox="0 0 32 32" enable-background="new 0 0 32 32" xml:space="preserve">
<g opacity="0.4">
	<path d="M-88-5.088c-4.963,0-9-3.589-9-8v-1c0-4.411,4.037-8,9-8s9,3.589,9,8v1C-79-8.677-83.037-5.088-88-5.088z"/>
	<g>
		<path d="M-88-21.088c4.418,0,8,3.134,8,7c0,0.169,0,0.831,0,1c0,3.866-3.582,7-8,7s-8-3.134-8-7c0-0.169,0-0.831,0-1
			C-96-17.954-92.418-21.088-88-21.088 M-88-23.088c-5.514,0-10,4.038-10,9v1c0,4.962,4.486,9,10,9s10-4.038,10-9v-1
			C-78-19.05-82.486-23.088-88-23.088L-88-23.088z"/>
	</g>
</g>
<polygon fill="#770600" points="-213.91,-46 -212,-47.671 -212,-48.671 -213.519,-50 -216,-47.829 -218.481,-50 -220,-48.671 
	-220,-47.671 -218.09,-46 -220,-44.329 -220,-43.329 -218.481,-42 -216,-44.172 -213.519,-42 -212,-43.329 -212,-44.329 "/>
<polygon fill="#8E3313" points="-213.201,-36 -211,-37.981 -211,-38.906 -213.242,-41 -216,-38.519 -218.758,-41 -221,-38.981 
	-221,-37.981 -218.799,-36 -221,-34.019 -221,-33.019 -218.757,-31 -216,-33.481 -213.243,-31 -211,-33.019 -211,-34.019 "/>
<path opacity="0.4" d="M-213.242-41l2.242,2.094v0.925L-213.201-36l2.201,1.981v1L-213.243-31L-216-33.481L-218.757-31L-221-33.019
	v-1l2.201-1.981L-221-37.981v-1l2.242-2.019l2.758,2.481L-213.242-41 M-213.242-42c-0.239,0-0.479,0.085-0.669,0.257L-216-39.864
	l-2.089-1.879c-0.19-0.171-0.43-0.257-0.669-0.257s-0.479,0.085-0.669,0.257l-2.242,2.019c-0.211,0.189-0.331,0.46-0.331,0.743v1
	c0,0.283,0.12,0.554,0.331,0.743l1.375,1.238l-1.375,1.238c-0.211,0.189-0.331,0.46-0.331,0.743v1c0,0.283,0.12,0.554,0.331,0.743
	l2.243,2.019c0.19,0.171,0.43,0.257,0.669,0.257s0.479-0.086,0.669-0.257l2.088-1.879l2.088,1.879
	c0.19,0.171,0.43,0.257,0.669,0.257s0.479-0.086,0.669-0.257l2.243-2.019c0.211-0.189,0.331-0.46,0.331-0.743v-1
	c0-0.283-0.12-0.554-0.331-0.743L-211.706-36l1.375-1.238c0.211-0.189,0.331-0.46,0.331-0.743v-0.925
	c0-0.277-0.115-0.542-0.317-0.731l-2.242-2.094C-212.752-41.91-212.997-42-213.242-42L-213.242-42z"/>
<polygon fill="#774400" points="-237,-50 -234,-50 -234,-49 -234.958,-48 -232,-48 -232,-47 -239,-42 -239,-43 -237.5,-46 -240,-46 
	-240,-47 "/>
<path opacity="0.4" d="M-252,10h-2V8c0-1.104-0.896-2-2-2h-6c-0.53,0-1.039,0.211-1.414,0.586l-6,6
	C-269.789,12.961-270,13.47-270,14v2c0,1.104,0.896,2,2,2h1.764l-1.553,3.105C-267.928,21.383-268,21.689-268,22v2
	c0,0.75,0.419,1.436,1.085,1.779C-266.627,25.926-266.313,26-266,26c0.409,0,0.816-0.125,1.162-0.373l14-9.999
	C-250.312,15.252-250,14.646-250,14v-2C-250,10.896-250.896,10-252,10z M-266,22l4-8h-6l6-6h6l-4,4h8L-266,22z"/>
<linearGradient id="SVGID_1_" gradientUnits="userSpaceOnUse" x1="-216" y1="-32" x2="-216" y2="-41">
	<stop  offset="0" style="stop-color:#C11717"/>
	<stop  offset="1" style="stop-color:#D63232"/>
</linearGradient>
<polygon fill="url(#SVGID_1_)" points="-213.757,-36.5 -211,-38.981 -213.242,-41 -216,-38.519 -218.758,-41 -221,-38.981 
	-218.243,-36.5 -221,-34.019 -218.757,-32 -216,-34.481 -213.243,-32 -211,-34.019 "/>
<rect x="-202" y="-42" fill="#D63232" width="4" height="4"/>
<rect x="-202" y="-38" fill="#C11717" width="4" height="4"/>
<rect x="-202" y="-34" fill="#770600" width="4" height="4"/>
<path opacity="0.4" d="M-214,12.657v-2c0-0.577-0.248-1.125-0.684-1.505l-3.037-2.657C-218.098,6.165-218.566,6-219.037,6
	s-0.939,0.165-1.316,0.495L-224,9.686l-3.646-3.19C-228.023,6.165-228.492,6-228.963,6s-0.939,0.165-1.316,0.495l-3.037,2.657
	c-0.436,0.38-0.684,0.928-0.684,1.505v2c0,0.577,0.248,1.125,0.684,1.505l2.1,1.838l-2.1,1.837c-0.434,0.38-0.684,0.929-0.684,1.505
	v2c0,0.576,0.248,1.125,0.684,1.506l3.037,2.658c0.377,0.328,0.846,0.494,1.316,0.494s0.939-0.164,1.316-0.494l3.646-3.191
	l3.646,3.191c0.377,0.33,0.846,0.494,1.316,0.494s0.939-0.164,1.316-0.494l3.037-2.658c0.436-0.381,0.684-0.93,0.684-1.506v-2
	c0-0.576-0.25-1.125-0.684-1.505l-2.1-1.837l2.1-1.838C-214.248,13.782-214,13.234-214,12.657z M-220.963,15l4.963,4.342
	L-219.037,22L-224,17.657L-228.963,22L-232,19.342l4.963-4.342L-232,10.657L-228.963,8l4.963,4.343L-219.037,8l3.037,2.657
	L-220.963,15z"/>
<path opacity="0.4" d="M-234,46.833h-3c-0.265,0-0.52,0.105-0.707,0.293l-3,3c-0.188,0.188-0.293,0.442-0.293,0.707v1
	c0,0.552,0.448,1,1,1h0.882l-0.776,1.553c-0.069,0.139-0.105,0.292-0.105,0.447v1c0,0.375,0.209,0.718,0.542,0.89
	c0.144,0.073,0.301,0.11,0.458,0.11c0.205,0,0.408-0.063,0.581-0.187l7-5c0.263-0.188,0.419-0.49,0.419-0.813v-1
	c0-0.552-0.448-1-1-1h-1v-1C-233,47.281-233.448,46.833-234,46.833L-234,46.833z"/>
<path opacity="0.4" d="M-213.519,46.833c-0.235,0-0.47,0.083-0.658,0.247L-216,48.676l-1.823-1.596
	c-0.188-0.164-0.423-0.247-0.658-0.247s-0.47,0.083-0.658,0.247l-1.519,1.329c-0.218,0.19-0.342,0.464-0.342,0.753v1
	c0,0.288,0.124,0.563,0.342,0.752l1.05,0.919l-1.05,0.919c-0.217,0.189-0.342,0.464-0.342,0.752v1c0,0.288,0.124,0.563,0.342,0.753
	l1.519,1.329c0.188,0.164,0.423,0.247,0.658,0.247s0.47-0.082,0.658-0.247L-216,54.99l1.823,1.596
	c0.188,0.165,0.423,0.247,0.658,0.247s0.47-0.082,0.658-0.247l1.519-1.329c0.218-0.19,0.342-0.465,0.342-0.753v-1
	c0-0.288-0.125-0.563-0.342-0.752l-1.05-0.919l1.05-0.919c0.218-0.189,0.342-0.464,0.342-0.752v-1c0-0.289-0.124-0.563-0.342-0.753
	l-1.519-1.329C-213.049,46.916-213.283,46.833-213.519,46.833L-213.519,46.833z"/>
<linearGradient id="SVGID_2_" gradientUnits="userSpaceOnUse" x1="-236" y1="54.7969" x2="-236" y2="47.8276">
	<stop  offset="0" style="stop-color:#FFA506"/>
	<stop  offset="1" style="stop-color:#FFCE00"/>
</linearGradient>
<polygon fill="url(#SVGID_2_)" points="-237,47.833 -234,47.833 -236,49.833 -232,49.833 -239,54.833 -237,50.833 -240,50.833 "/>
<linearGradient id="SVGID_3_" gradientUnits="userSpaceOnUse" x1="-216" y1="54.833" x2="-216" y2="47.833">
	<stop  offset="0" style="stop-color:#C11717"/>
	<stop  offset="1" style="stop-color:#D63232"/>
</linearGradient>
<polygon fill="url(#SVGID_3_)" points="-214.481,51.333 -212,49.162 -213.519,47.833 -216,50.004 -218.481,47.833 -220,49.162 
	-217.519,51.333 -220,53.504 -218.481,54.833 -216,52.662 -213.519,54.833 -212,53.504 "/>
<rect x="-317" y="8" fill="#FFCE00" width="4" height="4"/>
<rect x="-317" y="12" fill="#FF8F08" width="4" height="4"/>
<rect x="-317" y="16" fill="#774400" width="4" height="4"/>
<rect x="-242.125" y="64.459" fill="#81C6C4" width="4" height="4"/>
<rect x="-242.125" y="68.459" fill="#619E9E" width="4" height="4"/>
<rect x="-242.125" y="72.459" fill="#3B5B5A" width="4" height="4"/>
<rect x="-329" y="8" fill="#FFCE00" width="4" height="4"/>
<rect x="-329" y="12" fill="#448400" width="4" height="4"/>
<rect x="-329" y="16" fill="#774400" width="4" height="4"/>
<g>
	<linearGradient id="SVGID_4_" gradientUnits="userSpaceOnUse" x1="-266.75" y1="99" x2="-266.75" y2="69">
		<stop  offset="0" style="stop-color:#BC4C2E"/>
		<stop  offset="1" style="stop-color:#C65944"/>
	</linearGradient>
	<rect x="-281.75" y="69" fill="url(#SVGID_4_)" width="30" height="30"/>
	<path fill="#4F170A" d="M-251.75,69v30h-30V69H-251.75 M-250.75,68h-32v32h32V68L-250.75,68z"/>
	<polygon fill="#D87264" points="-258.75,83 -264.75,83 -264.75,77 -268.75,77 -268.75,83 -274.75,83 -274.75,87 -268.75,87 
		-268.75,93 -264.75,93 -264.75,87 -258.75,87 	"/>
	<polygon fill="#4F170A" points="-258.75,82 -264.75,82 -264.75,76 -268.75,76 -268.75,82 -274.75,82 -274.75,86 -268.75,86 
		-268.75,92 -264.75,92 -264.75,86 -258.75,86 	"/>
	<rect x="-281.75" y="68" fill="#D87264" width="30" height="1"/>
</g>
<g>
	<linearGradient id="SVGID_5_" gradientUnits="userSpaceOnUse" x1="-215.25" y1="99" x2="-215.25" y2="69">
		<stop  offset="0" style="stop-color:#619E9E"/>
		<stop  offset="1" style="stop-color:#81C6C4"/>
	</linearGradient>
	<rect x="-230.25" y="69" fill="url(#SVGID_5_)" width="30" height="30"/>
	<path fill="#3B5B5A" d="M-200.25,69v30h-30V69H-200.25 M-199.25,68h-32v32h32V68L-199.25,68z"/>
	<polygon fill="#81C6C4" points="-207.25,83 -213.25,83 -213.25,77 -217.25,77 -217.25,83 -223.25,83 -223.25,87 -217.25,87 
		-217.25,93 -213.25,93 -213.25,87 -207.25,87 	"/>
	<polygon fill="#3B5B5A" points="-207.25,82 -213.25,82 -213.25,76 -217.25,76 -217.25,82 -223.25,82 -223.25,86 -217.25,86 
		-217.25,92 -213.25,92 -213.25,86 -207.25,86 	"/>
	<rect x="-230.25" y="68" fill="#81C6C4" width="30" height="1"/>
</g>
<rect x="-204" y="16" fill="#4F170A" width="16" height="16"/>
<linearGradient id="SVGID_6_" gradientUnits="userSpaceOnUse" x1="-196" y1="31" x2="-196" y2="17.0005">
	<stop  offset="0" style="stop-color:#BC4C2E"/>
	<stop  offset="1" style="stop-color:#C65944"/>
</linearGradient>
<rect x="-203" y="17" fill="url(#SVGID_6_)" width="14" height="14"/>
<rect x="-203" y="17" opacity="0.2" fill="#FFFFFF" width="14" height="1"/>
<rect x="-184" y="24" opacity="0.2" fill="#FFFFFF" width="32" height="1"/>
<rect x="-203" y="24" fill="#4F170A" width="14" height="1"/>
<rect x="-184" y="23" fill="#4F170A" width="32" height="1"/>
<rect x="-202" y="20" fill="#E3E5CF" width="1" height="3"/>
<rect x="-199" y="20" fill="#E3E5CF" width="1" height="3"/>
<polygon fill="#E3E5CF" points="-194,30 -198,30 -196,26 "/>
<rect x="-196" y="18" fill="#E3E5CF" width="1" height="5"/>
<rect x="-193" y="20" fill="#E3E5CF" width="1" height="3"/>
<rect x="-190" y="20" fill="#E3E5CF" width="1" height="3"/>
<rect x="-419" y="-81" fill="#E3E5CF" width="360" height="32"/>
<polygon fill="#E3E5CF" points="-163,17 -173,17 -168,7 "/>
<polygon fill="#E3E5CF" points="-173,31 -163,31 -168,41 "/>
<polygon points="-119,-40.093 -121.829,-42.922 -130.026,-34.724 -134.172,-38.869 -137,-36.041 -130.04,-29.078 "/>
<path opacity="0.4" d="M-121.829,14.078L-121.829,14.078c-0.53,0-1.039,0.211-1.414,0.586l-6.783,6.784l-2.731-2.731
	c-0.391-0.391-0.902-0.586-1.414-0.586s-1.023,0.195-1.414,0.586l-2.828,2.828c-0.375,0.375-0.586,0.884-0.586,1.414v2
	c0,0.53,0.211,1.039,0.586,1.414l6.96,6.963c0.39,0.391,0.902,0.586,1.414,0.586c0.511,0,1.022-0.194,1.412-0.584l11.04-11.015
	c0.377-0.375,0.588-0.885,0.588-1.416v-2c0-0.53-0.211-1.039-0.586-1.414l-2.829-2.829
	C-120.79,14.289-121.299,14.078-121.829,14.078L-121.829,14.078z M-130.04,29.844l-6.96-6.963l2.828-2.828l4.146,4.146l8.197-8.198
	l2.829,2.829L-130.04,29.844z"/>
<g opacity="0.4">
	<path d="M-88,6c-5.514,0-10,4.038-10,9v2c0,4.962,4.486,9,10,9s10-4.038,10-9v-2C-78,10.038-82.486,6-88,6z M-88,22
		c-4.418,0-8-3.134-8-7s3.582-7,8-7s8,3.134,8,7S-83.582,22-88,22z"/>
	<polygon points="-87,11 -89,11 -89,16 -82,16 -82,14 -87,14 	"/>
</g>
<path d="M-36-34c-5.514,0-10,4.038-10,9v2c0,4.962,4.486,9,10,9s10-4.038,10-9v-2C-26-29.962-30.486-34-36-34z M-36-18
	c-4.418,0-8-3.134-8-7s3.582-7,8-7s8,3.134,8,7S-31.582-18-36-18z"/>
<g>
	<path d="M-33.833-21c0,0.55-0.45,1-1,1h-2c-0.55,0-1-0.45-1-1v-8c0-0.55,0.45-1,1-1h2c0.55,0,1,0.45,1,1V-21z"/>
</g>
<rect x="-45" y="7" fill="none" stroke="#000000" stroke-width="2" stroke-linejoin="round" stroke-miterlimit="10" width="18" height="17"/>
<rect x="-45" y="22" width="18" height="2"/>
<polygon opacity="0.4" points="24,21.171 18.828,16 24,10.829 21.171,8 16,13.171 10.829,8 8,10.829 13.172,16 8,21.171 10.829,24 
	16,18.829 21.171,24 "/>
</svg>
