<?xml version="1.0" encoding="utf-8"?>
<!-- Generator: Adobe Illustrator 16.0.0, SVG Export Plug-In . SVG Version: 6.00 Build 0)  -->
<!DOCTYPE svg PUBLIC "-//W3C//DTD SVG 1.1//EN" "http://www.w3.org/Graphics/SVG/1.1/DTD/svg11.dtd">
<svg version="1.1" id="Layer_1" xmlns="http://www.w3.org/2000/svg" xmlns:xlink="http://www.w3.org/1999/xlink" x="0px" y="0px"
	 width="16px" height="16px" viewBox="0 0 16 16" enable-background="new 0 0 16 16" xml:space="preserve">
<path opacity="0.4" d="M13,6.329v-1c0-0.289-0.124-0.563-0.342-0.752L11.14,3.248C10.951,3.083,10.717,3,10.481,3
	s-0.47,0.083-0.658,0.248L8,4.843L6.177,3.248C5.988,3.083,5.754,3,5.519,3S5.049,3.083,4.86,3.248L3.342,4.576
	C3.124,4.766,3,5.04,3,5.329v1c0,0.289,0.124,0.563,0.342,0.752L4.392,8l-1.05,0.918C3.125,9.108,3,9.383,3,9.671v1
	c0,0.288,0.124,0.563,0.342,0.753l1.519,1.329C5.049,12.917,5.283,13,5.519,13s0.47-0.082,0.658-0.247L8,11.157l1.823,1.596
	C10.012,12.918,10.246,13,10.481,13s0.47-0.082,0.658-0.247l1.519-1.329C12.876,11.233,13,10.959,13,10.671v-1
	c0-0.288-0.125-0.563-0.342-0.752L11.608,8l1.05-0.919C12.876,6.891,13,6.617,13,6.329z M9.519,7.5L12,9.671L10.481,11L8,8.829
	L5.519,11L4,9.671L6.481,7.5L4,5.329L5.519,4L8,6.171L10.481,4L12,5.329L9.519,7.5z"/>
</svg>
