<?xml version="1.0" encoding="utf-8"?>
<!-- Generator: Adobe Illustrator 16.2.0, SVG Export Plug-In . SVG Version: 6.00 Build 0)  -->
<!DOCTYPE svg PUBLIC "-//W3C//DTD SVG 1.1//EN" "http://www.w3.org/Graphics/SVG/1.1/DTD/svg11.dtd">
<svg version="1.1" id="Layer_1" xmlns="http://www.w3.org/2000/svg" xmlns:xlink="http://www.w3.org/1999/xlink" x="0px" y="0px"
	 width="32px" height="32px" viewBox="0 0 32 32" enable-background="new 0 0 32 32" xml:space="preserve">
<g opacity="0.4">
	<g>
		<path d="M18,14c0,1.1-0.9,2-2,2l0,0c-1.1,0-2-0.9-2-2V8c0-1.1,0.9-2,2-2l0,0c1.1,0,2,0.9,2,2V14z"/>
	</g>
	<path d="M21.512,7.49c-0.474-0.281-1.089-0.126-1.371,0.348c-0.281,0.474-0.127,1.088,0.348,1.371C22.688,10.517,24,12.682,24,15
		c0,3.859-3.589,7-8,7s-8-3.141-8-7c0-2.318,1.313-4.483,3.512-5.792c0.475-0.283,0.63-0.896,0.348-1.371
		c-0.283-0.475-0.897-0.629-1.371-0.348C7.678,9.163,6,11.97,6,15v2c0,4.962,4.486,9,10,9c5.514,0,10-4.038,10-9v-2
		C26,11.97,24.322,9.163,21.512,7.49z"/>
</g>
</svg>
