<?xml version="1.0" encoding="utf-8"?>
<!-- Generator: Adobe Illustrator 16.2.0, SVG Export Plug-In . SVG Version: 6.00 Build 0)  -->
<!DOCTYPE svg PUBLIC "-//W3C//DTD SVG 1.1//EN" "http://www.w3.org/Graphics/SVG/1.1/DTD/svg11.dtd">
<svg version="1.1" id="Layer_1" xmlns="http://www.w3.org/2000/svg" xmlns:xlink="http://www.w3.org/1999/xlink" x="0px" y="0px"
	 width="32px" height="32px" viewBox="0 0 32 32" enable-background="new 0 0 32 32" xml:space="preserve">
<path opacity="0.4" enable-background="new    " d="M25.999,18.904c0.002,0.416-0.099,0.83-0.331,1.182l-2.016,3.03
	c-0.383,0.577-1.023,0.897-1.682,0.897c-0.309,0-0.633-0.068-0.923-0.214L20,23.281V24c0,1.104-0.873,2-1.984,2h-4.03
	C12.873,26,12,25.104,12,24v-0.719l-1.049,0.52c-0.29,0.145-0.607,0.215-0.914,0.215c-0.658,0-1.303-0.32-1.686-0.898l-2.017-3.03
	c-0.237-0.356-0.327-0.776-0.331-1.196C6,18.5,5.999,13.703,5.999,13.021c0-0.39,0.113-0.775,0.334-1.107l2.015-3.03
	c0.383-0.578,1.023-0.899,1.682-0.898c0.308,0,0.632,0.069,0.922,0.214L12,8.718V8c0-1.104,0.873-2,1.985-2h4.029
	C19.127,6,20,6.896,20,8v0.718l1.049-0.52c0.29-0.145,0.607-0.215,0.914-0.214c0.658,0,1.303,0.32,1.686,0.898l2.019,3.03
	c0.235,0.357,0.328,0.776,0.331,1.197C25.999,13.375,25.997,18.469,25.999,18.904z M22,15c0-0.328-0.039-0.646-0.104-0.958
	l2.031-1.027l-2-3.03l-2.033,1.026C19.342,10.597,18.7,10.273,18,10.055V8h-4v2.055c-0.7,0.218-1.342,0.542-1.895,0.956
	l-2.033-1.026l-2,3.03l2.032,1.027C10.039,14.354,10,14.672,10,15s0.039,0.646,0.104,0.958l-2.032,1.026l2,3.031l2.033-1.027
	c0.553,0.414,1.194,0.738,1.895,0.957V22h4v-2.055c0.7-0.219,1.342-0.543,1.895-0.957l2.033,1.027l2-3.031l-2.031-1.026
	C21.961,15.646,22,15.328,22,15z M16,12.375c-1.657,0-3,1.175-3,2.625s1.343,2.625,3,2.625S19,16.45,19,15S17.657,12.375,16,12.375z
	"/>
</svg>
